<svg xmlns="http://www.w3.org/2000/svg" width="36.004" height="35.092" viewBox="0 0 36.004 35.092">
  <path id="Icon_awesome-arrow-left" data-name="Icon awesome-arrow-left" d="M20.693,35.389l-1.784,1.784a1.921,1.921,0,0,1-2.724,0L.563,21.559a1.921,1.921,0,0,1,0-2.724L16.184,3.214a1.921,1.921,0,0,1,2.724,0L20.693,5a1.931,1.931,0,0,1-.032,2.756l-9.683,9.225H34.072A1.924,1.924,0,0,1,36,18.908v2.571a1.924,1.924,0,0,1-1.929,1.929H10.977l9.683,9.225A1.917,1.917,0,0,1,20.693,35.389Z" transform="translate(0.004 -2.647)"/>
</svg>
